<svg width="48" height="48" viewBox="0 0 48 48" fill="none" xmlns="http://www.w3.org/2000/svg">
<path d="M30.5307 38.4693C30.6715 38.61 30.7505 38.8009 30.7505 38.9999C30.7505 39.199 30.6715 39.3898 30.5307 39.5306C30.39 39.6713 30.1991 39.7503 30.0001 39.7503C29.8011 39.7503 29.6102 39.6713 29.4695 39.5306L14.4695 24.5306C14.3997 24.4609 14.3444 24.3782 14.3067 24.2871C14.2689 24.1961 14.2495 24.0985 14.2495 23.9999C14.2495 23.9014 14.2689 23.8038 14.3067 23.7127C14.3444 23.6217 14.3997 23.539 14.4695 23.4693L29.4695 8.4693C29.5392 8.39962 29.6219 8.34435 29.7129 8.30663C29.804 8.26892 29.9016 8.24951 30.0001 8.24951C30.0986 8.24951 30.1962 8.26892 30.2873 8.30663C30.3783 8.34435 30.461 8.39962 30.5307 8.4693C30.6004 8.53899 30.6557 8.62171 30.6934 8.71276C30.7311 8.8038 30.7505 8.90138 30.7505 8.99993C30.7505 9.09847 30.7311 9.19606 30.6934 9.2871C30.6557 9.37815 30.6004 9.46087 30.5307 9.53055L16.0614 23.9999L30.5307 38.4693Z" fill="#E9E6D6"/>
</svg>
