<svg width="48" height="48" viewBox="0 0 48 48" fill="none" xmlns="http://www.w3.org/2000/svg">
<path d="M33.5306 24.5306L18.5306 39.5306C18.4609 39.6002 18.3781 39.6555 18.2871 39.6932C18.1961 39.7309 18.0985 39.7503 17.9999 39.7503C17.9014 39.7503 17.8038 39.7309 17.7128 39.6932C17.6217 39.6555 17.539 39.6002 17.4693 39.5306C17.3996 39.4609 17.3443 39.3781 17.3066 39.2871C17.2689 39.1961 17.2495 39.0985 17.2495 38.9999C17.2495 38.9014 17.2689 38.8038 17.3066 38.7128C17.3443 38.6217 17.3996 38.539 17.4693 38.4693L31.9387 23.9999L17.4693 9.53055C17.3286 9.38982 17.2495 9.19895 17.2495 8.99993C17.2495 8.80091 17.3286 8.61003 17.4693 8.4693C17.61 8.32857 17.8009 8.24951 17.9999 8.24951C18.199 8.24951 18.3898 8.32857 18.5306 8.4693L33.5306 23.4693C33.6003 23.539 33.6556 23.6217 33.6933 23.7127C33.7311 23.8038 33.7505 23.9014 33.7505 23.9999C33.7505 24.0985 33.7311 24.1961 33.6933 24.2871C33.6556 24.3782 33.6003 24.4609 33.5306 24.5306Z" fill="#E9E6D6"/>
</svg>
