<svg width="63" height="91" viewBox="0 0 63 91" fill="none" xmlns="http://www.w3.org/2000/svg">
<path d="M30.1644 0.0202607C13.187 0.636458 0 15.1092 0 32.0309V85.324V89.5742V90.854H62.5556C62.5556 90.854 62.6187 90.8224 62.6187 90.7908V85.3872C62.6187 85.3872 62.5871 85.324 62.5556 85.324H34.3969C18.4619 85.324 5.5433 72.4471 5.5433 56.5682V31.9993C5.5433 16.7366 18.0986 4.39684 33.3703 5.61343C46.6206 6.65623 57.0754 17.7478 57.0754 31.2093V45.287C57.0754 57.8006 46.889 67.9441 34.3337 67.9441H28.6009C28.6009 67.9441 28.5377 67.9757 28.5377 68.0073V73.4109C28.5377 73.4109 28.5693 73.4741 28.6009 73.4741H62.5556C62.5556 73.4741 62.6187 73.4425 62.6187 73.4109V31.2093C62.6187 13.624 47.9472 -0.611736 30.1644 0.0202607Z" fill="#204F5B"/>
</svg>
