<svg width="48" height="48" viewBox="0 0 48 48" fill="none" xmlns="http://www.w3.org/2000/svg">
<path d="M39 15.75H32.25V10.5C32.25 8.31196 31.3808 6.21354 29.8336 4.66637C28.2865 3.11919 26.188 2.25 24 2.25C21.812 2.25 19.7135 3.11919 18.1664 4.66637C16.6192 6.21354 15.75 8.31196 15.75 10.5V15.75H9C8.40326 15.75 7.83097 15.9871 7.40901 16.409C6.98705 16.831 6.75 17.4033 6.75 18V39C6.75 39.5967 6.98705 40.169 7.40901 40.591C7.83097 41.0129 8.40326 41.25 9 41.25H39C39.5967 41.25 40.169 41.0129 40.591 40.591C41.0129 40.169 41.25 39.5967 41.25 39V18C41.25 17.4033 41.0129 16.831 40.591 16.409C40.169 15.9871 39.5967 15.75 39 15.75ZM17.25 10.5C17.25 8.70979 17.9612 6.9929 19.227 5.72703C20.4929 4.46116 22.2098 3.75 24 3.75C25.7902 3.75 27.5071 4.46116 28.773 5.72703C30.0388 6.9929 30.75 8.70979 30.75 10.5V15.75H17.25V10.5ZM39.75 39C39.75 39.1989 39.671 39.3897 39.5303 39.5303C39.3897 39.671 39.1989 39.75 39 39.75H9C8.80109 39.75 8.61032 39.671 8.46967 39.5303C8.32902 39.3897 8.25 39.1989 8.25 39V18C8.25 17.8011 8.32902 17.6103 8.46967 17.4697C8.61032 17.329 8.80109 17.25 9 17.25H39C39.1989 17.25 39.3897 17.329 39.5303 17.4697C39.671 17.6103 39.75 17.8011 39.75 18V39ZM24 21.75C22.8725 21.7512 21.7865 22.1756 20.957 22.9392C20.1275 23.7029 19.6148 24.7501 19.5205 25.8736C19.4262 26.9972 19.7571 28.1152 20.4478 29.0064C21.1384 29.8977 22.1385 30.4971 23.25 30.6863V34.5C23.25 34.6989 23.329 34.8897 23.4697 35.0303C23.6103 35.171 23.8011 35.25 24 35.25C24.1989 35.25 24.3897 35.171 24.5303 35.0303C24.671 34.8897 24.75 34.6989 24.75 34.5V30.6863C25.8615 30.4971 26.8616 29.8977 27.5522 29.0064C28.2429 28.1152 28.5738 26.9972 28.4795 25.8736C28.3852 24.7501 27.8725 23.7029 27.043 22.9392C26.2135 22.1756 25.1275 21.7512 24 21.75ZM24 29.25C23.4067 29.25 22.8266 29.0741 22.3333 28.7444C21.8399 28.4148 21.4554 27.9462 21.2284 27.3981C21.0013 26.8499 20.9419 26.2467 21.0576 25.6647C21.1734 25.0828 21.4591 24.5482 21.8787 24.1287C22.2982 23.7091 22.8328 23.4234 23.4147 23.3076C23.9967 23.1919 24.5999 23.2513 25.1481 23.4784C25.6962 23.7054 26.1648 24.0899 26.4944 24.5833C26.8241 25.0766 27 25.6567 27 26.25C27 27.0456 26.6839 27.8087 26.1213 28.3713C25.5587 28.9339 24.7956 29.25 24 29.25Z" fill="#F3B9D6"/>
</svg>
