<svg width="781" height="247" viewBox="0 0 781 247" fill="none" xmlns="http://www.w3.org/2000/svg">
<path d="M82.007 0.0550821C35.8511 1.73032 -0.000183105 41.077 -0.000183105 87.0816V231.968V243.523V247.002H170.068C170.068 247.002 170.24 246.917 170.24 246.831V232.14C170.24 232.14 170.154 231.968 170.068 231.968H93.5137C50.1916 231.968 15.0702 196.96 15.0702 153.79V86.9957C15.0702 45.5013 49.2041 11.9536 90.7229 15.2611C126.746 18.0961 155.169 48.2504 155.169 84.8479V123.121C155.169 157.141 127.476 184.718 93.342 184.718H77.7563C77.7563 184.718 77.5846 184.804 77.5846 184.89V199.58C77.5846 199.58 77.6704 199.752 77.7563 199.752H170.068C170.068 199.752 170.24 199.666 170.24 199.58V84.8479C170.24 37.0392 130.353 -1.66311 82.007 0.0550821Z" fill="#DFE1CC"/>
<path d="M408.275 182.655C406.257 182.57 404.454 182.441 402.822 182.355C401.191 182.226 399.731 182.183 398.486 182.183C392.389 182.183 384.832 182.57 375.859 183.3L375.215 178.875C381.312 176.857 385.519 174.193 387.795 170.886C390.07 167.578 391.187 162.81 391.187 156.582V89.9589C391.187 83.7304 390.07 78.9624 387.795 75.6549C385.519 72.3474 381.355 69.6842 375.215 67.6653L375.859 63.241C384.832 63.9712 392.346 64.3578 398.486 64.3578C408.275 64.3578 416.776 64.143 423.947 63.7135C425.321 63.6276 427.339 63.5416 429.958 63.5416C443.354 63.5416 454.86 65.9901 464.435 70.8869C474.01 75.7838 481.352 82.7425 486.332 91.6771C491.356 100.655 493.846 111.093 493.846 122.991C493.846 134.89 491.356 144.812 486.418 154.005C481.481 163.197 474.267 170.456 464.821 175.74C455.376 181.066 444.126 183.729 431.074 183.729C426.222 183.729 418.623 183.343 408.318 182.612L408.275 182.655ZM455.333 171.058C462.031 166.762 467.054 160.92 470.36 153.403C473.666 145.929 475.341 137.338 475.341 127.63C475.341 125.611 475.126 122.304 474.697 117.665C473.022 101.943 467.784 90.0877 459.025 82.0552C450.266 74.0226 439.318 70.0278 426.136 70.0278C418.451 70.0278 413.084 71.7031 409.993 75.0106C406.944 78.3181 405.398 83.3009 405.398 89.9589V151.814C405.398 157.828 406.085 162.638 407.459 166.29C408.833 169.941 411.324 172.69 414.973 174.58C418.623 176.47 423.861 177.415 430.731 177.415C440.434 177.415 448.635 175.267 455.333 171.015V171.058Z" fill="#DFE1CC"/>
<path d="M507.844 167.792C511.15 163.153 514.113 156.753 516.603 148.634L530.858 103.231C532.232 98.5918 532.919 94.64 532.919 91.3754C532.919 85.4476 531.115 80.5078 527.466 76.513C523.816 72.5182 518.406 69.5543 511.236 67.6643L511.88 63.24C518.75 63.9702 524.417 64.3568 528.968 64.3568C532.446 64.3568 536.697 63.9702 541.763 63.24L583.497 157.998L617.33 64.3138C628.708 64.3138 638.068 63.9273 645.324 63.197L645.968 67.6214C642.19 68.8671 639.399 70.8859 637.682 73.635C635.921 76.3842 635.063 79.9494 635.063 84.3738C635.063 89.4424 636.265 96.6588 638.712 106.066L650.562 151.813C652.151 157.827 653.525 162.38 654.684 165.43C655.843 168.479 657.518 171.143 659.751 173.419C661.983 175.696 665.075 177.5 669.068 178.874L668.424 183.299C665.16 182.998 661.897 182.74 658.677 182.526C655.457 182.311 651.893 182.225 647.986 182.225C642.705 182.225 634.934 182.611 624.586 183.342L623.942 178.917C628.279 177.543 631.37 175.61 633.259 173.161C635.148 170.67 636.093 167.491 636.093 163.582C636.093 160.833 635.449 156.924 634.204 151.856L623.126 108.987C620.808 99.7945 618.361 92.6211 615.87 87.4665L580.448 184.63H578.087L539.015 96.487L523.687 148.72C522.442 153.144 521.798 157.053 521.798 160.447C521.798 164.785 523.043 168.436 525.534 171.443C528.024 174.45 531.974 176.941 537.47 178.96L536.826 183.385C527.208 182.654 519.308 182.268 513.082 182.268C508.875 182.268 502.649 182.654 494.405 183.385L493.761 178.96C499.772 176.211 504.452 172.517 507.758 167.878L507.844 167.792Z" fill="#DFE1CC"/>
<path d="M709.04 173.978C712.046 172.088 714.064 169.768 715.137 167.105C716.211 164.399 716.726 160.919 716.726 156.581V88.5404C716.726 82.2261 715.652 77.587 713.506 74.709C711.359 71.831 707.409 70.3705 701.741 70.3705C692.982 70.3705 686.327 73.4633 681.733 79.6917C677.139 85.9202 674.22 95.4132 672.974 108.171H668.552L667.607 63.4119C679.329 63.9273 698.092 64.271 723.896 64.3569H734.029C747.21 64.3569 762.538 64.0562 780.056 63.4119L779.283 108.171H774.861C773.616 95.4132 770.653 85.9202 766.102 79.6917C761.551 73.4633 754.853 70.3705 746.094 70.3705C740.383 70.3705 736.476 71.831 734.329 74.709C732.183 77.6299 731.109 82.2261 731.109 88.5404V156.581C731.109 160.919 731.625 164.399 732.698 167.105C733.771 169.811 735.789 172.088 738.795 173.978C741.8 175.868 746.137 177.5 751.847 178.874L751.203 183.299C739.482 182.569 730.465 182.182 724.154 182.182C719.302 182.182 710.2 182.569 696.804 183.299L696.16 178.874C701.87 177.5 706.207 175.868 709.212 173.978H709.04Z" fill="#DFE1CC"/>
<path d="M359.415 148.808C334.298 185.878 278.267 168.61 281.916 123.894C307.205 123.894 358.041 124.066 358.041 124.066C358.041 96.575 342.413 76.5151 314.418 76.5151C283.204 76.5151 267.318 108.087 267.318 130.509C267.318 162.425 289.602 186.694 319.399 185.492C344.473 184.504 358.213 165.603 362.807 150.913C362.807 150.913 360.961 149.753 359.415 148.851V148.808ZM314.633 82.4C333.654 82.4 341.983 99.8396 341.983 118.181L282.045 118.01C284.149 102.803 293.766 82.4 314.59 82.4H314.633Z" fill="#DFE1CC"/>
</svg>
