<svg width="24" height="24" viewBox="0 0 24 24" fill="none" xmlns="http://www.w3.org/2000/svg">
<path d="M19.1854 4.92401L19.1125 4.88754L19.076 4.81459C17.9088 1.89666 15.1368 0 12 0C8.86322 0 6.09119 1.89666 4.92401 4.81459L4.88754 4.88754L4.81459 4.92401C1.89666 6.09119 0 8.86322 0 12C0 15.1368 1.89666 17.9088 4.81459 19.076L4.88754 19.1125L4.92401 19.1854C6.09119 22.1033 8.86322 24 12 24C15.1368 24 17.9088 22.1033 19.076 19.1854L19.1125 19.1125L19.1854 19.076C22.1033 17.9088 24 15.1368 24 12C24 8.86322 22.1033 6.09119 19.1854 4.92401ZM7.18541 3.46505C8.38906 2.07903 10.1398 1.2766 12 1.2766C13.8602 1.2766 15.6109 2.07903 16.8146 3.46505C16.9605 3.64742 16.997 3.86626 16.8875 4.04863C16.7781 4.231 16.5957 4.3769 16.3769 4.3769C14.9179 4.3769 13.4954 4.77812 12.2918 5.54407C12.1824 5.61702 12.1094 5.61702 12 5.61702C11.8906 5.61702 11.7812 5.58055 11.7082 5.54407C10.5046 4.77812 9.08207 4.3769 7.6231 4.3769C7.40425 4.3769 7.18541 4.26748 7.11246 4.04863C7.00304 3.82979 7.03951 3.61094 7.18541 3.46505ZM5.72644 6.56535C5.79939 6.12766 6.12766 5.79939 6.56535 5.72644C6.93009 5.6535 7.29483 5.6535 7.6231 5.6535C9.08207 5.6535 10.4681 6.12766 11.5988 7.03951C11.8176 7.22188 12.1459 7.22188 12.4012 7.03951C13.5319 6.12766 14.8815 5.6535 16.3404 5.6535C16.7052 5.6535 17.0699 5.68997 17.3982 5.72644C17.8359 5.79939 18.1641 6.12766 18.2371 6.56535C18.31 6.93009 18.31 7.29483 18.31 7.6231C18.31 8.31611 18.2006 9.00912 17.9818 9.70213C17.8723 9.99392 17.617 10.2492 17.3252 10.3587C16.997 10.4681 16.6687 10.3951 16.4134 10.2128C15.1003 9.26444 13.5684 8.79027 11.9635 8.79027C10.3587 8.79027 8.82675 9.30091 7.51368 10.2128C7.33131 10.3587 7.11246 10.3951 6.93009 10.3951C6.82067 10.3951 6.71125 10.3951 6.60182 10.3587C6.27356 10.2492 6.05471 10.0304 5.94529 9.70213C5.72644 9.04559 5.61702 8.35258 5.61702 7.6231C5.61702 7.25836 5.6535 6.89362 5.72644 6.56535ZM16.0851 12C16.0851 12.3283 15.9027 12.6565 15.6474 12.8389C14.5897 13.6049 13.3131 13.9696 12 13.9696C10.6869 13.9696 9.44681 13.5684 8.35258 12.8389C8.06079 12.6565 7.91489 12.3283 7.91489 12C7.91489 11.6717 8.09726 11.3435 8.35258 11.1611C9.41033 10.3951 10.6869 10.0304 12 10.0304C13.3131 10.0304 14.5532 10.4316 15.6474 11.1611C15.9027 11.3435 16.0851 11.6717 16.0851 12ZM4.3769 16.3769C4.3769 16.5957 4.26748 16.8146 4.04863 16.8875C3.97568 16.924 3.90274 16.924 3.82979 16.924C3.68389 16.924 3.57447 16.8875 3.46505 16.7781C2.07903 15.5745 1.2766 13.8237 1.2766 11.9635C1.2766 10.1033 2.07903 8.35258 3.46505 7.14894C3.64742 7.00304 3.86626 6.96656 4.04863 7.07599C4.26748 7.18541 4.3769 7.36778 4.3769 7.58663C4.3769 9.04559 4.77812 10.4316 5.54407 11.6717C5.6535 11.8541 5.6535 12.0729 5.54407 12.2553C4.77812 13.4954 4.3769 14.9179 4.3769 16.3769ZM16.8146 20.535C15.6109 21.921 13.8602 22.7234 12 22.7234C10.1398 22.7234 8.38906 21.921 7.18541 20.535C7.03951 20.3526 7.00304 20.1337 7.11246 19.9514C7.22188 19.7325 7.40425 19.6231 7.6231 19.6231C9.08207 19.6231 10.5046 19.2219 11.7082 18.4559C11.8906 18.3465 12.1094 18.3465 12.3283 18.4559C13.5319 19.2219 14.9544 19.6231 16.4134 19.6231C16.6322 19.6231 16.8511 19.7325 16.924 19.9514C16.9605 20.1337 16.9605 20.3891 16.8146 20.535ZM18.2736 17.4346C18.2006 17.8723 17.8723 18.2006 17.4346 18.2736C17.0699 18.3465 16.7052 18.3465 16.3769 18.3465C14.9179 18.3465 13.5319 17.8723 12.4012 16.9605C12.1824 16.7781 11.8541 16.7781 11.6353 16.9605C10.5046 17.8723 9.11854 18.3465 7.65957 18.3465C7.29483 18.3465 6.93009 18.31 6.60182 18.2736C6.16413 18.2006 5.83587 17.8723 5.76292 17.4346C5.68997 17.0699 5.68997 16.7052 5.68997 16.3769C5.68997 15.6839 5.79939 14.9909 6.01824 14.2979C6.12766 14.0061 6.38298 13.7508 6.67477 13.6413C7.00304 13.5319 7.33131 13.6049 7.58663 13.7872C8.8997 14.7356 10.4316 15.2097 12.0365 15.2097C13.6413 15.2097 15.1733 14.6991 16.4863 13.7872C16.7416 13.6049 17.0699 13.5319 17.3982 13.6413C17.7264 13.7508 17.9453 13.9696 18.0547 14.2979C18.2736 14.9544 18.383 15.6474 18.383 16.3769C18.3465 16.7416 18.3465 17.0699 18.2736 17.4346ZM20.535 16.8146C20.4255 16.8875 20.3161 16.9605 20.1702 16.9605C20.0973 16.9605 20.0243 16.9605 19.9514 16.924C19.7325 16.8146 19.6231 16.6322 19.6231 16.4134C19.6231 14.9544 19.2219 13.5684 18.4559 12.3283C18.3465 12.1459 18.3465 11.9271 18.4559 11.7447C19.2219 10.541 19.6231 9.11854 19.6231 7.65957C19.6231 7.44073 19.7325 7.22188 19.9514 7.14894C20.1337 7.03951 20.3891 7.07599 20.535 7.22188C21.921 8.42553 22.7234 10.1763 22.7234 12.0365C22.7234 13.8237 21.921 15.5745 20.535 16.8146Z" fill="#E9E6D6"/>
</svg>
