<svg width="24" height="24" viewBox="0 0 24 24" fill="none" xmlns="http://www.w3.org/2000/svg">
<path d="M20.25 5.99993H13.8103L17.0306 2.78055C17.1714 2.63982 17.2504 2.44895 17.2504 2.24993C17.2504 2.05091 17.1714 1.86003 17.0306 1.7193C16.8899 1.57857 16.699 1.49951 16.5 1.49951C16.301 1.49951 16.1101 1.57857 15.9694 1.7193L12 5.68962L8.03063 1.7193C7.96094 1.64962 7.87822 1.59435 7.78717 1.55663C7.69613 1.51892 7.59855 1.49951 7.5 1.49951C7.40145 1.49951 7.30387 1.51892 7.21283 1.55663C7.12178 1.59435 7.03906 1.64962 6.96937 1.7193C6.82864 1.86003 6.74958 2.05091 6.74958 2.24993C6.74958 2.44895 6.82864 2.63982 6.96937 2.78055L10.1897 5.99993H3.75C3.35218 5.99993 2.97064 6.15796 2.68934 6.43927C2.40804 6.72057 2.25 7.1021 2.25 7.49993V18.7499C2.25 19.1478 2.40804 19.5293 2.68934 19.8106C2.97064 20.0919 3.35218 20.2499 3.75 20.2499H20.25C20.6478 20.2499 21.0294 20.0919 21.3107 19.8106C21.592 19.5293 21.75 19.1478 21.75 18.7499V7.49993C21.75 7.1021 21.592 6.72057 21.3107 6.43927C21.0294 6.15796 20.6478 5.99993 20.25 5.99993ZM3.75 7.49993H13.5V18.7499H3.75V7.49993ZM20.25 18.7499H15V7.49993H20.25V18.7499ZM18.75 10.8749C18.75 11.0974 18.684 11.3149 18.5604 11.4999C18.4368 11.685 18.2611 11.8291 18.0555 11.9143C17.85 11.9994 17.6238 12.0217 17.4055 11.9783C17.1873 11.9349 16.9868 11.8278 16.8295 11.6704C16.6722 11.5131 16.565 11.3126 16.5216 11.0944C16.4782 10.8762 16.5005 10.65 16.5856 10.4444C16.6708 10.2388 16.815 10.0631 17 9.93953C17.185 9.81591 17.4025 9.74993 17.625 9.74993C17.9234 9.74993 18.2095 9.86846 18.4205 10.0794C18.6315 10.2904 18.75 10.5766 18.75 10.8749ZM18.75 15.3749C18.75 15.5974 18.684 15.8149 18.5604 15.9999C18.4368 16.185 18.2611 16.3291 18.0555 16.4143C17.85 16.4994 17.6238 16.5217 17.4055 16.4783C17.1873 16.4349 16.9868 16.3278 16.8295 16.1704C16.6722 16.0131 16.565 15.8126 16.5216 15.5944C16.4782 15.3762 16.5005 15.15 16.5856 14.9444C16.6708 14.7388 16.815 14.5631 17 14.4395C17.185 14.3159 17.4025 14.2499 17.625 14.2499C17.9234 14.2499 18.2095 14.3685 18.4205 14.5794C18.6315 14.7904 18.75 15.0766 18.75 15.3749Z" fill="#7D4869"/>
</svg>
