<svg width="24" height="21" viewBox="0 0 24 21" fill="none" xmlns="http://www.w3.org/2000/svg">
<path d="M23.9891 0.940492C24.0357 0.658041 23.9307 0.371795 23.7133 0.188109C23.4957 0.00442296 23.1981 -0.0492418 22.9309 0.0470693L0.530938 8.12401C0.229134 8.23282 0.0207787 8.513 0.00146192 8.83596C-0.0178547 9.15893 0.155595 9.46238 0.442237 9.60707L6.84224 12.8378C7.09901 12.9675 7.4049 12.9482 7.64376 12.7875L12.9564 9.21165L9.77531 13.2262C9.63525 13.403 9.57507 13.631 9.60947 13.8547C9.64387 14.0784 9.76968 14.2773 9.95624 14.4028L19.5563 20.8644C19.7821 21.0164 20.069 21.0424 20.3181 20.9335C20.5672 20.8246 20.7445 20.5956 20.7891 20.3251L23.9891 0.940492Z" fill="#E9E6D6"/>
</svg>
