<svg width="48" height="48" viewBox="0 0 48 48" fill="none" xmlns="http://www.w3.org/2000/svg">
<path d="M38.0306 36.9693C38.1713 37.11 38.2503 37.3009 38.2503 37.4999C38.2503 37.699 38.1713 37.8898 38.0306 38.0306C37.8898 38.1713 37.699 38.2503 37.4999 38.2503C37.3009 38.2503 37.11 38.1713 36.9693 38.0306L23.9999 25.0612L11.0306 38.0306C10.8898 38.1713 10.699 38.2503 10.4999 38.2503C10.3009 38.2503 10.11 38.1713 9.9693 38.0306C9.82857 37.8898 9.74951 37.699 9.74951 37.4999C9.74951 37.3009 9.82857 37.11 9.9693 36.9693L22.9387 23.9999L9.9693 11.0306C9.82857 10.8898 9.74951 10.699 9.74951 10.4999C9.74951 10.3009 9.82857 10.11 9.9693 9.9693C10.11 9.82857 10.3009 9.74951 10.4999 9.74951C10.699 9.74951 10.8898 9.82857 11.0306 9.9693L23.9999 22.9387L36.9693 9.9693C37.039 9.89962 37.1217 9.84435 37.2128 9.80663C37.3038 9.76892 37.4014 9.74951 37.4999 9.74951C37.5985 9.74951 37.6961 9.76892 37.7871 9.80663C37.8781 9.84435 37.9609 9.89962 38.0306 9.9693C38.1002 10.039 38.1555 10.1217 38.1932 10.2128C38.2309 10.3038 38.2503 10.4014 38.2503 10.4999C38.2503 10.5985 38.2309 10.6961 38.1932 10.7871C38.1555 10.8781 38.1002 10.9609 38.0306 11.0306L25.0612 23.9999L38.0306 36.9693Z" fill="#E9E6D6"/>
</svg>
